<?xml version="1.0" encoding="UTF-8" standalone="no"?>
<!DOCTYPE svg PUBLIC "-//W3C//DTD SVG 1.1//EN" "http://www.w3.org/Graphics/SVG/1.1/DTD/svg11.dtd">
<svg xmlns="http://www.w3.org/2000/svg" version="1.1" viewBox="0 0 500 500">
<g stroke-width="2.00" fill="none" stroke-linecap="butt">
<path stroke="#2b4148" vector-effect="non-scaling-stroke" d="
  M 294.64 461.89
  Q 314.71 441.75 335.32 422.28
  Q 335.38 422.22 336.35 421.40
  Q 338.75 419.37 337.42 416.52
  A 1.44 1.35 1.5 0 0 336.74 415.85
  Q 310.17 403.08 283.38 390.77
  Q 279.80 389.13 279.76 389.12
  Q 276.91 388.32 275.88 391.77
  A 1.68 1.53 46.3 0 0 275.90 392.73
  L 280.86 407.31
  A 0.43 0.41 77.3 0 1 280.52 407.88
  L 267.50 409.29"
/>
<path stroke="#2a4046" vector-effect="non-scaling-stroke" d="
  M 267.50 409.29
  Q 223.06 412.22 181.11 395.83
  A 2.87 2.86 -52.1 0 0 178.41 396.17
  Q 175.64 398.16 177.95 401.05
  Q 202.31 431.58 240.00 442.25
  Q 257.02 447.07 275.71 446.36"
/>
<path stroke="#2b4148" vector-effect="non-scaling-stroke" d="
  M 275.71 446.36
  L 286.56 445.72
  A 0.48 0.48 -2.3 0 1 287.07 446.19
  L 287.50 463.46"
/>
<path stroke="#2a4046" vector-effect="non-scaling-stroke" d="
  M 216.07 36.09
  L 192.24 59.16"
/>
<path stroke="#2b4148" vector-effect="non-scaling-stroke" d="
  M 192.24 59.16
  L 170.92 79.96
  A 1.73 1.40 -21.6 0 0 170.45 80.79
  Q 169.93 83.55 172.50 84.75
  Q 199.25 97.21 225.94 109.77
  Q 228.02 110.74 229.20 110.86
  Q 231.96 111.12 232.30 108.57
  Q 232.48 107.19 231.57 104.55
  Q 229.46 98.43 227.54 92.25"
/>
<path stroke="#2a4046" vector-effect="non-scaling-stroke" d="
  M 227.54 92.25
  Q 277.50 85.21 324.45 103.11
  Q 324.56 103.15 326.13 103.87
  Q 329.36 105.35 331.12 102.46
  Q 332.04 100.95 330.94 99.57
  Q 304.68 66.61 264.54 56.77
  Q 254.86 54.40 244.81 53.81
  Q 233.37 53.14 221.75 54.35
  A 0.46 0.45 86.5 0 1 221.25 53.90
  Q 221.09 46.00 221.00 38.00
  Q 220.99 37.18 219.50 35.46"
/>
<path stroke="#51626b" vector-effect="non-scaling-stroke" d="
  M 275.71 446.36
  L 274.44 442.81
  Q 273.46 440.09 275.50 440.50
  Q 279.93 441.39 284.00 439.54"
/>
<path stroke="#2b4148" vector-effect="non-scaling-stroke" d="
  M 284.00 439.54
  Q 286.74 439.00 289.52 438.86
  Q 291.63 438.75 292.54 439.76
  Q 293.68 441.01 293.50 443.25
  Q 293.37 444.95 293.79 452.93
  Q 293.81 453.44 294.17 453.09
  L 328.64 419.98
  A 0.71 0.71 -54.4 0 0 328.45 418.82
  L 285.25 398.56
  Q 284.45 398.18 284.70 399.03
  Q 285.91 403.05 287.56 407.44
  Q 288.82 410.76 287.26 412.81
  A 1.27 1.23 14.5 0 1 286.44 413.28
  L 271.00 415.29"
/>
<path stroke="#51626b" vector-effect="non-scaling-stroke" d="
  M 271.00 415.29
  Q 269.13 415.23 269.31 413.93
  A 1.64 0.55 -74.5 0 0 269.26 412.97
  Q 268.66 411.69 267.31 411.75
  A 0.60 0.51 -89.8 0 0 266.82 412.32
  Q 266.75 413.81 265.49 414.16
  A 0.88 0.80 60.3 0 1 264.65 413.89
  Q 263.49 412.59 263.20 410.91
  A 0.77 0.76 -10.6 0 1 263.80 410.04
  Q 265.08 409.78 265.18 410.21
  A 0.75 0.29 78.8 0 0 265.55 410.80
  Q 266.42 410.91 267.04 410.36
  A 1.20 0.81 -60.0 0 1 267.70 410.04
  Q 270.43 409.87 267.50 409.29"
/>
<path stroke="#2a4046" vector-effect="non-scaling-stroke" d="
  M 271.00 415.29
  Q 230.92 418.90 192.68 406.56
  Q 190.26 405.78 192.07 407.55
  Q 229.52 444.15 284.00 439.54"
/>
<path stroke="#51626b" vector-effect="non-scaling-stroke" d="
  M 227.54 92.25
  Q 230.42 87.08 224.50 86.21"
/>
<path stroke="#2a4046" vector-effect="non-scaling-stroke" d="
  M 224.50 86.21
  Q 264.39 80.06 303.34 89.86
  Q 304.65 90.19 310.13 91.80
  Q 313.51 92.80 316.95 93.58
  Q 317.44 93.69 317.08 93.33
  Q 276.27 53.55 219.31 61.06
  Q 216.42 61.45 215.33 59.72
  Q 214.75 58.79 214.75 56.17
  Q 214.75 51.79 214.75 47.22
  Q 214.75 46.40 214.15 46.97
  L 198.79 61.50"
/>
<path stroke="#51626b" vector-effect="non-scaling-stroke" d="
  M 198.79 61.50
  Q 199.32 60.14 198.39 59.53
  A 1.82 0.93 18.3 0 1 197.73 58.86
  Q 196.08 55.48 194.75 59.25
  Q 193.85 61.81 192.24 59.16"
/>
<path stroke="#2b4148" vector-effect="non-scaling-stroke" d="
  M 224.50 86.21
  Q 220.84 86.15 220.31 88.84
  Q 220.05 90.19 220.96 92.95
  Q 222.26 96.86 223.84 100.96
  Q 224.17 101.82 223.34 101.43
  L 179.55 80.93
  A 0.38 0.38 -54.6 0 1 179.45 80.31
  L 198.79 61.50"
/>
<path stroke="#4c5d66" vector-effect="non-scaling-stroke" d="
  M 385.60 250.04
  A 135.56 135.56 0.0 0 0 250.04 114.48
  A 135.56 135.56 0.0 0 0 114.48 250.04
  A 135.56 135.56 0.0 0 0 250.04 385.60
  A 135.56 135.56 0.0 0 0 385.60 250.04"
/>
<path stroke="#4c5d66" vector-effect="non-scaling-stroke" d="
  M 227.84 141.60
  Q 219.37 151.62 214.09 163.64
  Q 208.23 177.02 204.61 191.50
  A 0.41 0.40 -83.2 0 0 205.00 192.00
  L 241.94 192.00
  A 0.56 0.56 0.0 0 0 242.50 191.44
  L 242.50 131.77
  A 0.59 0.59 -11.8 0 0 241.67 131.23
  Q 233.70 134.66 227.84 141.60"
/>
<path stroke="#4c5d66" vector-effect="non-scaling-stroke" d="
  M 257.70 131.67
  L 257.50 191.34
  A 0.66 0.66 -0.1 0 0 258.16 192.00
  L 294.94 191.94
  A 0.40 0.39 -6.4 0 0 295.33 191.46
  Q 291.88 176.41 285.44 162.38
  Q 280.43 151.47 272.83 142.20
  Q 266.71 134.74 258.31 131.27
  A 0.44 0.44 -78.3 0 0 257.70 131.67"
/>
<path stroke="#4c5d66" vector-effect="non-scaling-stroke" d="
  M 161.87 167.87
  Q 151.74 178.66 144.70 191.67
  A 0.22 0.22 -75.4 0 0 144.89 192.00
  L 188.45 191.94
  A 0.63 0.63 -82.9 0 0 189.06 191.46
  Q 192.80 176.31 198.65 161.85
  Q 204.24 148.04 213.05 135.93
  Q 213.64 135.12 212.68 135.44
  Q 182.99 145.37 161.87 167.87"
/>
<path stroke="#4c5d66" vector-effect="non-scaling-stroke" d="
  M 331.38 161.11
  Q 312.07 143.49 287.17 135.31
  Q 286.34 135.03 286.85 135.74
  Q 291.35 141.92 295.12 148.58
  Q 298.60 154.72 301.68 162.33
  Q 307.42 176.50 310.95 191.27
  A 0.94 0.94 -6.6 0 0 311.87 192.00
  L 355.14 192.00
  A 0.31 0.30 -14.4 0 0 355.41 191.55
  Q 345.62 174.11 331.38 161.11"
/>
<path stroke="#4c5d66" vector-effect="non-scaling-stroke" d="
  M 181.25 291.73
  Q 183.05 291.82 185.30 291.69
  A 0.57 0.56 -6.1 0 0 185.83 291.05
  Q 179.78 248.99 186.11 207.55
  A 0.43 0.42 4.6 0 0 185.69 207.06
  L 137.81 207.06
  A 0.71 0.71 9.9 0 0 137.14 207.53
  Q 122.12 249.10 136.63 291.13
  A 0.82 0.81 -9.7 0 0 137.42 291.68
  Q 157.35 291.35 177.62 291.54
  Q 177.67 291.54 181.25 291.73"
/>
<path stroke="#4c5d66" vector-effect="non-scaling-stroke" d="
  M 217.44 291.38
  Q 229.69 291.46 241.94 291.68
  A 0.49 0.49 0.6 0 0 242.44 291.19
  L 242.50 207.50
  A 0.50 0.50 0.0 0 0 242.00 207.00
  L 201.91 207.00
  A 0.68 0.68 4.5 0 0 201.24 207.57
  Q 194.54 249.23 201.00 291.01
  A 0.78 0.77 84.2 0 0 201.80 291.67
  Q 209.37 291.33 217.44 291.38"
/>
<path stroke="#4c5d66" vector-effect="non-scaling-stroke" d="
  M 297.80 291.59
  A 1.30 1.27 4.4 0 0 299.08 290.52
  Q 305.62 249.25 298.77 207.55
  A 0.59 0.58 -4.6 0 0 298.19 207.06
  L 258.37 207.00
  A 0.87 0.87 0.0 0 0 257.50 207.87
  L 257.50 291.02
  A 0.74 0.72 -0.4 0 0 258.25 291.74
  L 297.80 291.59"
/>
<path stroke="#4c5d66" vector-effect="non-scaling-stroke" d="
  M 358.84 291.68
  Q 360.52 291.80 362.88 291.22
  A 1.09 1.08 2.4 0 0 363.66 290.51
  Q 377.97 248.78 362.86 207.53
  A 0.71 0.71 -9.9 0 0 362.19 207.06
  L 314.56 207.06
  A 0.44 0.43 86.0 0 0 314.13 207.56
  Q 320.21 249.52 314.25 291.48
  A 0.24 0.23 -85.7 0 0 314.48 291.75
  Q 335.76 291.60 357.02 291.56
  Q 357.08 291.56 358.84 291.68"
/>
<path stroke="#4c5d66" vector-effect="non-scaling-stroke" d="
  M 311.37 307.25
  Q 309.52 314.23 307.78 320.51
  Q 301.29 343.85 287.21 364.01
  Q 286.44 365.12 287.71 364.68
  Q 332.54 349.12 356.25 307.13
  A 0.30 0.30 -75.3 0 0 355.99 306.68
  L 312.02 306.75
  A 0.67 0.67 7.2 0 0 311.37 307.25"
/>
<path stroke="#4c5d66" vector-effect="non-scaling-stroke" d="
  M 168.90 339.10
  Q 188.17 356.68 212.92 364.73
  Q 213.83 365.02 213.26 364.26
  Q 206.25 354.97 201.39 344.40
  Q 193.17 326.51 188.80 307.31
  A 0.64 0.62 83.6 0 0 188.19 306.81
  L 144.14 306.75
  A 0.30 0.30 75.3 0 0 143.88 307.20
  Q 153.76 325.30 168.90 339.10"
/>
<path stroke="#4c5d66" vector-effect="non-scaling-stroke" d="
  M 232.91 363.34
  Q 236.75 366.74 241.78 368.96
  A 0.51 0.51 12.1 0 0 242.50 368.50
  L 242.50 307.25
  A 0.50 0.50 0.0 0 0 242.00 306.75
  L 204.70 306.75
  A 0.41 0.41 83.8 0 0 204.30 307.25
  Q 209.42 329.18 220.44 348.11
  Q 225.46 356.74 232.91 363.34"
/>
<path stroke="#4c5d66" vector-effect="non-scaling-stroke" d="
  M 257.61 333.44
  Q 257.36 350.09 257.51 367.92
  A 0.99 0.99 75.8 0 0 258.96 368.79
  Q 267.16 364.41 272.81 357.81
  Q 279.23 350.33 284.54 339.12
  Q 291.76 323.88 295.83 307.19
  A 0.36 0.35 -83.4 0 0 295.49 306.75
  L 258.06 306.81
  A 0.49 0.49 89.4 0 0 257.57 307.31
  Q 257.81 320.37 257.61 333.44"
/>
</g>
<path fill="#041f23" d="
  M 294.64 461.89
  Q 314.71 441.75 335.32 422.28
  Q 335.38 422.22 336.35 421.40
  Q 338.75 419.37 337.42 416.52
  A 1.44 1.35 1.5 0 0 336.74 415.85
  Q 310.17 403.08 283.38 390.77
  Q 279.80 389.13 279.76 389.12
  Q 276.91 388.32 275.88 391.77
  A 1.68 1.53 46.3 0 0 275.90 392.73
  L 280.86 407.31
  A 0.43 0.41 77.3 0 1 280.52 407.88
  L 267.50 409.29
  Q 223.06 412.22 181.11 395.83
  A 2.87 2.86 -52.1 0 0 178.41 396.17
  Q 175.64 398.16 177.95 401.05
  Q 202.31 431.58 240.00 442.25
  Q 257.02 447.07 275.71 446.36
  L 286.56 445.72
  A 0.48 0.48 -2.3 0 1 287.07 446.19
  L 287.50 463.46
  Q 247.31 470.35 208.00 462.50
  Q 154.41 451.79 112.08 416.63
  Q 66.23 378.55 46.25 323.50
  Q 30.89 281.20 33.88 235.47
  Q 34.54 225.49 36.14 215.60
  Q 44.36 164.75 74.06 123.56
  Q 104.66 81.14 151.18 57.17
  Q 181.83 41.39 216.07 36.09
  L 192.24 59.16
  L 170.92 79.96
  A 1.73 1.40 -21.6 0 0 170.45 80.79
  Q 169.93 83.55 172.50 84.75
  Q 199.25 97.21 225.94 109.77
  Q 228.02 110.74 229.20 110.86
  Q 231.96 111.12 232.30 108.57
  Q 232.48 107.19 231.57 104.55
  Q 229.46 98.43 227.54 92.25
  Q 277.50 85.21 324.45 103.11
  Q 324.56 103.15 326.13 103.87
  Q 329.36 105.35 331.12 102.46
  Q 332.04 100.95 330.94 99.57
  Q 304.68 66.61 264.54 56.77
  Q 254.86 54.40 244.81 53.81
  Q 233.37 53.14 221.75 54.35
  A 0.46 0.45 86.5 0 1 221.25 53.90
  Q 221.09 46.00 221.00 38.00
  Q 220.99 37.18 219.50 35.46
  Q 244.55 31.92 268.00 34.00
  Q 334.23 39.88 385.64 81.03
  Q 393.44 87.27 400.64 94.26
  Q 445.36 137.67 460.44 198.06
  Q 468.22 229.26 466.29 262.78
  Q 465.72 272.62 464.11 282.66
  Q 450.86 365.63 385.94 418.69
  Q 346.41 450.99 294.64 461.89
  Z
  M 385.60 250.04
  A 135.56 135.56 0.0 0 0 250.04 114.48
  A 135.56 135.56 0.0 0 0 114.48 250.04
  A 135.56 135.56 0.0 0 0 250.04 385.60
  A 135.56 135.56 0.0 0 0 385.60 250.04
  Z"
/>
<path fill="#4f6069" d="
  M 219.50 35.46
  Q 220.99 37.18 221.00 38.00
  Q 221.09 46.00 221.25 53.90
  A 0.46 0.45 86.5 0 0 221.75 54.35
  Q 233.37 53.14 244.81 53.81
  Q 254.86 54.40 264.54 56.77
  Q 304.68 66.61 330.94 99.57
  Q 332.04 100.95 331.12 102.46
  Q 329.36 105.35 326.13 103.87
  Q 324.56 103.15 324.45 103.11
  Q 277.50 85.21 227.54 92.25
  Q 230.42 87.08 224.50 86.21
  Q 264.39 80.06 303.34 89.86
  Q 304.65 90.19 310.13 91.80
  Q 313.51 92.80 316.95 93.58
  Q 317.44 93.69 317.08 93.33
  Q 276.27 53.55 219.31 61.06
  Q 216.42 61.45 215.33 59.72
  Q 214.75 58.79 214.75 56.17
  Q 214.75 51.79 214.75 47.22
  Q 214.75 46.40 214.15 46.97
  L 198.79 61.50
  Q 199.32 60.14 198.39 59.53
  A 1.82 0.93 18.3 0 1 197.73 58.86
  Q 196.08 55.48 194.75 59.25
  Q 193.85 61.81 192.24 59.16
  L 216.07 36.09
  L 219.50 35.46
  Z"
/>
<path fill="#041f23" d="
  M 224.50 86.21
  Q 220.84 86.15 220.31 88.84
  Q 220.05 90.19 220.96 92.95
  Q 222.26 96.86 223.84 100.96
  Q 224.17 101.82 223.34 101.43
  L 179.55 80.93
  A 0.38 0.38 -54.6 0 1 179.45 80.31
  L 198.79 61.50
  L 214.15 46.97
  Q 214.75 46.40 214.75 47.22
  Q 214.75 51.79 214.75 56.17
  Q 214.75 58.79 215.33 59.72
  Q 216.42 61.45 219.31 61.06
  Q 276.27 53.55 317.08 93.33
  Q 317.44 93.69 316.95 93.58
  Q 313.51 92.80 310.13 91.80
  Q 304.65 90.19 303.34 89.86
  Q 264.39 80.06 224.50 86.21
  Z"
/>
<path fill="#52636c" d="
  M 198.79 61.50
  L 179.45 80.31
  A 0.38 0.38 -54.6 0 0 179.55 80.93
  L 223.34 101.43
  Q 224.17 101.82 223.84 100.96
  Q 222.26 96.86 220.96 92.95
  Q 220.05 90.19 220.31 88.84
  Q 220.84 86.15 224.50 86.21
  Q 230.42 87.08 227.54 92.25
  Q 229.46 98.43 231.57 104.55
  Q 232.48 107.19 232.30 108.57
  Q 231.96 111.12 229.20 110.86
  Q 228.02 110.74 225.94 109.77
  Q 199.25 97.21 172.50 84.75
  Q 169.93 83.55 170.45 80.79
  A 1.73 1.40 -21.6 0 1 170.92 79.96
  L 192.24 59.16
  Q 193.85 61.81 194.75 59.25
  Q 196.08 55.48 197.73 58.86
  A 1.82 0.93 18.3 0 0 198.39 59.53
  Q 199.32 60.14 198.79 61.50
  Z"
/>
<path fill="#939ba9" d="
  M 385.60 250.04
  A 135.56 135.56 0.0 0 1 250.04 385.60
  A 135.56 135.56 0.0 0 1 114.48 250.04
  A 135.56 135.56 0.0 0 1 250.04 114.48
  A 135.56 135.56 0.0 0 1 385.60 250.04
  Z
  M 227.84 141.60
  Q 219.37 151.62 214.09 163.64
  Q 208.23 177.02 204.61 191.50
  A 0.41 0.40 -83.2 0 0 205.00 192.00
  L 241.94 192.00
  A 0.56 0.56 0.0 0 0 242.50 191.44
  L 242.50 131.77
  A 0.59 0.59 -11.8 0 0 241.67 131.23
  Q 233.70 134.66 227.84 141.60
  Z
  M 257.70 131.67
  L 257.50 191.34
  A 0.66 0.66 -0.1 0 0 258.16 192.00
  L 294.94 191.94
  A 0.40 0.39 -6.4 0 0 295.33 191.46
  Q 291.88 176.41 285.44 162.38
  Q 280.43 151.47 272.83 142.20
  Q 266.71 134.74 258.31 131.27
  A 0.44 0.44 -78.3 0 0 257.70 131.67
  Z
  M 161.87 167.87
  Q 151.74 178.66 144.70 191.67
  A 0.22 0.22 -75.4 0 0 144.89 192.00
  L 188.45 191.94
  A 0.63 0.63 -82.9 0 0 189.06 191.46
  Q 192.80 176.31 198.65 161.85
  Q 204.24 148.04 213.05 135.93
  Q 213.64 135.12 212.68 135.44
  Q 182.99 145.37 161.87 167.87
  Z
  M 331.38 161.11
  Q 312.07 143.49 287.17 135.31
  Q 286.34 135.03 286.85 135.74
  Q 291.35 141.92 295.12 148.58
  Q 298.60 154.72 301.68 162.33
  Q 307.42 176.50 310.95 191.27
  A 0.94 0.94 -6.6 0 0 311.87 192.00
  L 355.14 192.00
  A 0.31 0.30 -14.4 0 0 355.41 191.55
  Q 345.62 174.11 331.38 161.11
  Z
  M 181.25 291.73
  Q 183.05 291.82 185.30 291.69
  A 0.57 0.56 -6.1 0 0 185.83 291.05
  Q 179.78 248.99 186.11 207.55
  A 0.43 0.42 4.6 0 0 185.69 207.06
  L 137.81 207.06
  A 0.71 0.71 9.9 0 0 137.14 207.53
  Q 122.12 249.10 136.63 291.13
  A 0.82 0.81 -9.7 0 0 137.42 291.68
  Q 157.35 291.35 177.62 291.54
  Q 177.67 291.54 181.25 291.73
  Z
  M 217.44 291.38
  Q 229.69 291.46 241.94 291.68
  A 0.49 0.49 0.6 0 0 242.44 291.19
  L 242.50 207.50
  A 0.50 0.50 0.0 0 0 242.00 207.00
  L 201.91 207.00
  A 0.68 0.68 4.5 0 0 201.24 207.57
  Q 194.54 249.23 201.00 291.01
  A 0.78 0.77 84.2 0 0 201.80 291.67
  Q 209.37 291.33 217.44 291.38
  Z
  M 297.80 291.59
  A 1.30 1.27 4.4 0 0 299.08 290.52
  Q 305.62 249.25 298.77 207.55
  A 0.59 0.58 -4.6 0 0 298.19 207.06
  L 258.37 207.00
  A 0.87 0.87 0.0 0 0 257.50 207.87
  L 257.50 291.02
  A 0.74 0.72 -0.4 0 0 258.25 291.74
  L 297.80 291.59
  Z
  M 358.84 291.68
  Q 360.52 291.80 362.88 291.22
  A 1.09 1.08 2.4 0 0 363.66 290.51
  Q 377.97 248.78 362.86 207.53
  A 0.71 0.71 -9.9 0 0 362.19 207.06
  L 314.56 207.06
  A 0.44 0.43 86.0 0 0 314.13 207.56
  Q 320.21 249.52 314.25 291.48
  A 0.24 0.23 -85.7 0 0 314.48 291.75
  Q 335.76 291.60 357.02 291.56
  Q 357.08 291.56 358.84 291.68
  Z
  M 311.37 307.25
  Q 309.52 314.23 307.78 320.51
  Q 301.29 343.85 287.21 364.01
  Q 286.44 365.12 287.71 364.68
  Q 332.54 349.12 356.25 307.13
  A 0.30 0.30 -75.3 0 0 355.99 306.68
  L 312.02 306.75
  A 0.67 0.67 7.2 0 0 311.37 307.25
  Z
  M 168.90 339.10
  Q 188.17 356.68 212.92 364.73
  Q 213.83 365.02 213.26 364.26
  Q 206.25 354.97 201.39 344.40
  Q 193.17 326.51 188.80 307.31
  A 0.64 0.62 83.6 0 0 188.19 306.81
  L 144.14 306.75
  A 0.30 0.30 75.3 0 0 143.88 307.20
  Q 153.76 325.30 168.90 339.10
  Z
  M 232.91 363.34
  Q 236.75 366.74 241.78 368.96
  A 0.51 0.51 12.1 0 0 242.50 368.50
  L 242.50 307.25
  A 0.50 0.50 0.0 0 0 242.00 306.75
  L 204.70 306.75
  A 0.41 0.41 83.8 0 0 204.30 307.25
  Q 209.42 329.18 220.44 348.11
  Q 225.46 356.74 232.91 363.34
  Z
  M 257.61 333.44
  Q 257.36 350.09 257.51 367.92
  A 0.99 0.99 75.8 0 0 258.96 368.79
  Q 267.16 364.41 272.81 357.81
  Q 279.23 350.33 284.54 339.12
  Q 291.76 323.88 295.83 307.19
  A 0.36 0.35 -83.4 0 0 295.49 306.75
  L 258.06 306.81
  A 0.49 0.49 89.4 0 0 257.57 307.31
  Q 257.81 320.37 257.61 333.44
  Z"
/>
<path fill="#041f23" d="
  M 227.84 141.60
  Q 233.70 134.66 241.67 131.23
  A 0.59 0.59 -11.8 0 1 242.50 131.77
  L 242.50 191.44
  A 0.56 0.56 0.0 0 1 241.94 192.00
  L 205.00 192.00
  A 0.41 0.40 -83.2 0 1 204.61 191.50
  Q 208.23 177.02 214.09 163.64
  Q 219.37 151.62 227.84 141.60
  Z"
/>
<path fill="#041f23" d="
  M 257.70 131.67
  A 0.44 0.44 -78.3 0 1 258.31 131.27
  Q 266.71 134.74 272.83 142.20
  Q 280.43 151.47 285.44 162.38
  Q 291.88 176.41 295.33 191.46
  A 0.40 0.39 -6.4 0 1 294.94 191.94
  L 258.16 192.00
  A 0.66 0.66 0.2 0 1 257.50 191.34
  L 257.70 131.67
  Z"
/>
<path fill="#041f23" d="
  M 161.87 167.87
  Q 182.99 145.37 212.68 135.44
  Q 213.64 135.12 213.05 135.93
  Q 204.24 148.04 198.65 161.85
  Q 192.80 176.31 189.06 191.46
  A 0.63 0.63 -82.9 0 1 188.45 191.94
  L 144.89 192.00
  A 0.22 0.22 -75.4 0 1 144.70 191.67
  Q 151.74 178.66 161.87 167.87
  Z"
/>
<path fill="#041f23" d="
  M 331.38 161.11
  Q 345.62 174.11 355.41 191.55
  A 0.31 0.30 -14.4 0 1 355.14 192.00
  L 311.87 192.00
  A 0.94 0.94 -6.6 0 1 310.95 191.27
  Q 307.42 176.50 301.68 162.33
  Q 298.60 154.72 295.12 148.58
  Q 291.35 141.92 286.85 135.74
  Q 286.34 135.03 287.17 135.31
  Q 312.07 143.49 331.38 161.11
  Z"
/>
<path fill="#041f23" d="
  M 177.62 291.54
  Q 157.35 291.35 137.42 291.68
  A 0.82 0.81 -9.7 0 1 136.63 291.13
  Q 122.12 249.10 137.14 207.53
  A 0.71 0.71 9.9 0 1 137.81 207.06
  L 185.69 207.06
  A 0.43 0.42 4.6 0 1 186.11 207.55
  Q 179.78 248.99 185.83 291.05
  A 0.57 0.56 -6.1 0 1 185.30 291.69
  Q 183.05 291.82 181.25 291.73
  Q 177.67 291.54 177.62 291.54
  Z"
/>
<path fill="#041f23" d="
  M 217.44 291.38
  Q 209.37 291.33 201.80 291.67
  A 0.78 0.77 84.2 0 1 201.00 291.01
  Q 194.54 249.23 201.24 207.57
  A 0.68 0.68 4.5 0 1 201.91 207.00
  L 242.00 207.00
  A 0.50 0.50 0.0 0 1 242.50 207.50
  L 242.44 291.19
  A 0.49 0.49 0.6 0 1 241.94 291.68
  Q 229.69 291.46 217.44 291.38
  Z"
/>
<path fill="#041f23" d="
  M 297.80 291.59
  L 258.25 291.74
  A 0.74 0.72 -0.4 0 1 257.50 291.02
  L 257.50 207.87
  A 0.87 0.87 0.0 0 1 258.37 207.00
  L 298.19 207.06
  A 0.59 0.58 -4.6 0 1 298.77 207.55
  Q 305.62 249.25 299.08 290.52
  A 1.30 1.27 4.4 0 1 297.80 291.59
  Z"
/>
<path fill="#041f23" d="
  M 357.02 291.56
  Q 335.76 291.60 314.48 291.75
  A 0.24 0.23 -85.7 0 1 314.25 291.48
  Q 320.21 249.52 314.13 207.56
  A 0.44 0.43 86.0 0 1 314.56 207.06
  L 362.19 207.06
  A 0.71 0.71 -9.9 0 1 362.86 207.53
  Q 377.97 248.78 363.66 290.51
  A 1.09 1.08 2.4 0 1 362.88 291.22
  Q 360.52 291.80 358.84 291.68
  Q 357.08 291.56 357.02 291.56
  Z"
/>
<path fill="#041f23" d="
  M 311.37 307.25
  A 0.67 0.67 7.2 0 1 312.02 306.75
  L 355.99 306.68
  A 0.30 0.30 -75.3 0 1 356.25 307.13
  Q 332.54 349.12 287.71 364.68
  Q 286.44 365.12 287.21 364.01
  Q 301.29 343.85 307.78 320.51
  Q 309.52 314.23 311.37 307.25
  Z"
/>
<path fill="#041f23" d="
  M 168.90 339.10
  Q 153.76 325.30 143.88 307.20
  A 0.30 0.30 75.3 0 1 144.14 306.75
  L 188.19 306.81
  A 0.64 0.62 83.6 0 1 188.80 307.31
  Q 193.17 326.51 201.39 344.40
  Q 206.25 354.97 213.26 364.26
  Q 213.83 365.02 212.92 364.73
  Q 188.17 356.68 168.90 339.10
  Z"
/>
<path fill="#041f23" d="
  M 232.91 363.34
  Q 225.46 356.74 220.44 348.11
  Q 209.42 329.18 204.30 307.25
  A 0.41 0.41 83.8 0 1 204.70 306.75
  L 242.00 306.75
  A 0.50 0.50 0.0 0 1 242.50 307.25
  L 242.50 368.50
  A 0.51 0.51 12.1 0 1 241.78 368.96
  Q 236.75 366.74 232.91 363.34
  Z"
/>
<path fill="#041f23" d="
  M 257.61 333.44
  Q 257.81 320.37 257.57 307.31
  A 0.49 0.49 89.4 0 1 258.06 306.81
  L 295.49 306.75
  A 0.36 0.35 -83.4 0 1 295.83 307.19
  Q 291.76 323.88 284.54 339.12
  Q 279.23 350.33 272.81 357.81
  Q 267.16 364.41 258.96 368.79
  A 0.99 0.99 75.8 0 1 257.51 367.92
  Q 257.36 350.09 257.61 333.44
  Z"
/>
<path fill="#52636c" d="
  M 294.64 461.89
  Q 291.44 463.85 287.50 463.46
  L 287.07 446.19
  A 0.48 0.48 -2.3 0 0 286.56 445.72
  L 275.71 446.36
  L 274.44 442.81
  Q 273.46 440.09 275.50 440.50
  Q 279.93 441.39 284.00 439.54
  Q 286.74 439.00 289.52 438.86
  Q 291.63 438.75 292.54 439.76
  Q 293.68 441.01 293.50 443.25
  Q 293.37 444.95 293.79 452.93
  Q 293.81 453.44 294.17 453.09
  L 328.64 419.98
  A 0.71 0.71 -54.4 0 0 328.45 418.82
  L 285.25 398.56
  Q 284.45 398.18 284.70 399.03
  Q 285.91 403.05 287.56 407.44
  Q 288.82 410.76 287.26 412.81
  A 1.27 1.23 14.5 0 1 286.44 413.28
  L 271.00 415.29
  Q 269.13 415.23 269.31 413.93
  A 1.64 0.55 -74.5 0 0 269.26 412.97
  Q 268.66 411.69 267.31 411.75
  A 0.60 0.51 -89.8 0 0 266.82 412.32
  Q 266.75 413.81 265.49 414.16
  A 0.88 0.80 60.3 0 1 264.65 413.89
  Q 263.49 412.59 263.20 410.91
  A 0.77 0.76 -10.6 0 1 263.80 410.04
  Q 265.08 409.78 265.18 410.21
  A 0.75 0.29 78.8 0 0 265.55 410.80
  Q 266.42 410.91 267.04 410.36
  A 1.20 0.81 -60.0 0 1 267.70 410.04
  Q 270.43 409.87 267.50 409.29
  L 280.52 407.88
  A 0.43 0.41 77.3 0 0 280.86 407.31
  L 275.90 392.73
  A 1.68 1.53 46.3 0 1 275.88 391.77
  Q 276.91 388.32 279.76 389.12
  Q 279.80 389.13 283.38 390.77
  Q 310.17 403.08 336.74 415.85
  A 1.44 1.35 1.5 0 1 337.42 416.52
  Q 338.75 419.37 336.35 421.40
  Q 335.38 422.22 335.32 422.28
  Q 314.71 441.75 294.64 461.89
  Z"
/>
<path fill="#4f6069" d="
  M 267.50 409.29
  Q 270.43 409.87 267.70 410.04
  A 1.20 0.81 -60.0 0 0 267.04 410.36
  Q 266.42 410.91 265.55 410.80
  A 0.75 0.29 78.8 0 1 265.18 410.21
  Q 265.08 409.78 263.80 410.04
  A 0.77 0.76 -10.6 0 0 263.20 410.91
  Q 263.49 412.59 264.65 413.89
  A 0.88 0.80 60.3 0 0 265.49 414.16
  Q 266.75 413.81 266.82 412.32
  A 0.60 0.51 -89.8 0 1 267.31 411.75
  Q 268.66 411.69 269.26 412.97
  A 1.64 0.55 -74.5 0 1 269.31 413.93
  Q 269.13 415.23 271.00 415.29
  Q 230.92 418.90 192.68 406.56
  Q 190.26 405.78 192.07 407.55
  Q 229.52 444.15 284.00 439.54
  Q 279.93 441.39 275.50 440.50
  Q 273.46 440.09 274.44 442.81
  L 275.71 446.36
  Q 257.02 447.07 240.00 442.25
  Q 202.31 431.58 177.95 401.05
  Q 175.64 398.16 178.41 396.17
  A 2.87 2.86 -52.1 0 1 181.11 395.83
  Q 223.06 412.22 267.50 409.29
  Z"
/>
<path fill="#041f23" d="
  M 284.00 439.54
  Q 229.52 444.15 192.07 407.55
  Q 190.26 405.78 192.68 406.56
  Q 230.92 418.90 271.00 415.29
  L 286.44 413.28
  A 1.27 1.23 14.5 0 0 287.26 412.81
  Q 288.82 410.76 287.56 407.44
  Q 285.91 403.05 284.70 399.03
  Q 284.45 398.18 285.25 398.56
  L 328.45 418.82
  A 0.71 0.71 -54.4 0 1 328.64 419.98
  L 294.17 453.09
  Q 293.81 453.44 293.79 452.93
  Q 293.37 444.95 293.50 443.25
  Q 293.68 441.01 292.54 439.76
  Q 291.63 438.75 289.52 438.86
  Q 286.74 439.00 284.00 439.54
  Z"
/>
</svg>
