<svg xmlns="http://www.w3.org/2000/svg" xmlns:xlink="http://www.w3.org/1999/xlink" width="500" zoomAndPan="magnify" viewBox="0 0 375 374.999991" height="500" preserveAspectRatio="xMidYMid meet" version="1.0"><defs><clipPath id="4cd6a14f3d"><path d="M 131.878906 125.542969 L 243.183594 125.542969 L 243.183594 273.949219 L 131.878906 273.949219 Z M 131.878906 125.542969 " clip-rule="nonzero"/></clipPath><clipPath id="5bac8d83a4"><path d="M 8.632812 39.394531 L 366.746094 39.394531 L 366.746094 335.402344 L 8.632812 335.402344 Z M 8.632812 39.394531 " clip-rule="nonzero"/></clipPath><clipPath id="8d8cd8071e"><path d="M 114.273438 146.785156 L 260.726562 146.785156 L 260.726562 290.207031 L 114.273438 290.207031 Z M 114.273438 146.785156 " clip-rule="nonzero"/></clipPath><clipPath id="5ab2076898"><path d="M 101.492188 134.265625 L 273.289062 134.265625 L 273.289062 302.03125 L 101.492188 302.03125 Z M 101.492188 134.265625 " clip-rule="nonzero"/></clipPath></defs><g clip-path="url(#4cd6a14f3d)"><path fill="#231f20" d="M 206.777344 73.144531 L 18.84375 73.144531 L 12.039062 56.683594 C 9.253906 49.949219 4.578125 44.246094 -1.488281 40.195312 C -7.554688 36.144531 -14.617188 34 -21.914062 34 L -77.886719 34 C -98.140625 34 -114.617188 50.449219 -114.617188 70.667969 L -114.617188 293.316406 C -114.617188 313.535156 -98.140625 329.984375 -77.886719 329.984375 L 206.777344 329.984375 C 227.03125 329.984375 243.507812 313.535156 243.507812 293.316406 L 243.507812 109.8125 C 243.507812 89.59375 227.03125 73.144531 206.777344 73.144531 Z M 106.476562 221.382812 L 72.511719 255.289062 C 70.285156 257.511719 67.363281 258.625 64.445312 258.625 C 61.523438 258.625 58.605469 257.511719 56.378906 255.289062 L 22.410156 221.382812 C 17.957031 216.9375 17.957031 209.726562 22.410156 205.28125 C 26.867188 200.832031 34.085938 200.832031 38.542969 205.28125 L 53.039062 219.75 L 53.039062 153.765625 C 53.039062 147.476562 58.144531 142.378906 64.445312 142.378906 C 70.742188 142.378906 75.851562 147.476562 75.851562 153.765625 L 75.851562 219.75 L 90.34375 205.28125 C 94.800781 200.832031 102.019531 200.832031 106.476562 205.28125 C 110.929688 209.726562 110.929688 216.9375 106.476562 221.382812 Z M 106.476562 221.382812 " fill-opacity="1" fill-rule="nonzero"/></g><g clip-path="url(#5bac8d83a4)"><path fill="#231f20" d="M 330.019531 78.558594 L 142.089844 78.558594 L 135.285156 62.097656 C 132.5 55.363281 127.820312 49.660156 121.757812 45.609375 C 115.691406 41.558594 108.628906 39.414062 101.332031 39.414062 L 45.359375 39.414062 C 25.105469 39.414062 8.628906 55.863281 8.628906 76.082031 L 8.628906 298.730469 C 8.628906 318.949219 25.105469 335.398438 45.359375 335.398438 L 330.019531 335.398438 C 350.273438 335.398438 366.753906 318.949219 366.753906 298.730469 L 366.753906 115.226562 C 366.753906 95.007812 350.273438 78.558594 330.019531 78.558594 Z M 229.722656 226.796875 L 195.753906 260.707031 C 193.527344 262.929688 190.609375 264.039062 187.6875 264.039062 C 184.769531 264.039062 181.851562 262.929688 179.621094 260.707031 L 145.65625 226.796875 C 141.203125 222.351562 141.203125 215.144531 145.65625 210.695312 C 150.113281 206.25 157.332031 206.25 161.789062 210.695312 L 176.28125 225.164062 L 176.28125 159.179688 C 176.28125 152.894531 181.390625 147.792969 187.6875 147.792969 C 193.988281 147.792969 199.09375 152.894531 199.09375 159.179688 L 199.09375 225.164062 L 213.589844 210.695312 C 218.046875 206.25 225.265625 206.25 229.722656 210.695312 C 234.175781 215.144531 234.175781 222.351562 229.722656 226.796875 Z M 229.722656 226.796875 " fill-opacity="1" fill-rule="nonzero"/></g><g clip-path="url(#8d8cd8071e)"><path fill="#737373" d="M 114.273438 146.785156 L 260.4375 146.785156 L 260.4375 290.441406 L 114.273438 290.441406 Z M 114.273438 146.785156 " fill-opacity="1" fill-rule="nonzero"/></g><g clip-path="url(#5ab2076898)"><path fill="#231f20" d="M 351.71875 367.953125 L 132.039062 367.953125 L 124.085938 387.242188 C 120.832031 395.132812 115.363281 401.8125 108.273438 406.558594 C 101.183594 411.304688 92.929688 413.816406 84.398438 413.816406 L 18.96875 413.816406 C -4.703125 413.816406 -23.964844 394.542969 -23.964844 370.855469 L -23.964844 109.984375 C -23.964844 86.296875 -4.703125 67.023438 18.96875 67.023438 L 351.71875 67.023438 C 375.390625 67.023438 394.652344 86.296875 394.652344 109.984375 L 394.652344 324.992188 C 394.652344 348.679688 375.390625 367.953125 351.71875 367.953125 Z M 234.476562 194.265625 L 194.773438 154.539062 C 192.167969 151.9375 188.757812 150.632812 185.34375 150.632812 C 181.929688 150.632812 178.519531 151.9375 175.914062 154.539062 L 136.210938 194.265625 C 131.003906 199.476562 131.003906 207.921875 136.210938 213.132812 C 141.417969 218.34375 149.859375 218.34375 155.066406 213.132812 L 172.007812 196.179688 L 172.007812 273.492188 C 172.007812 280.859375 177.980469 286.832031 185.34375 286.832031 C 192.707031 286.832031 198.675781 280.859375 198.675781 273.492188 L 198.675781 196.179688 L 215.621094 213.132812 C 220.828125 218.34375 229.265625 218.34375 234.476562 213.132812 C 239.683594 207.921875 239.683594 199.476562 234.476562 194.265625 Z M 234.476562 194.265625 " fill-opacity="1" fill-rule="nonzero"/></g></svg>