<?xml version="1.0" encoding="UTF-8" standalone="no"?>
<!DOCTYPE svg PUBLIC "-//W3C//DTD SVG 1.1//EN" "http://www.w3.org/Graphics/SVG/1.1/DTD/svg11.dtd">
<svg xmlns="http://www.w3.org/2000/svg" version="1.1" viewBox="0 0 500 500">
<g stroke-width="2.00" fill="none" stroke-linecap="butt">
<path stroke="#183136" vector-effect="non-scaling-stroke" d="
  M 289.2689 269.3089
  A 8.26 8.26 0.0 0 0 284.5549 258.6209
  L 284.4244 258.5703
  A 8.26 8.26 0.0 0 0 273.7364 263.2842
  L 209.3311 429.3311
  A 8.26 8.26 0.0 0 0 214.0451 440.0191
  L 214.1756 440.0697
  A 8.26 8.26 0.0 0 0 224.8636 435.3558
  L 289.2689 269.3089"
/>
<path stroke="#183136" vector-effect="non-scaling-stroke" d="
  M 135.94 356.31
  Q 168.15 381.88 200.42 407.37
  Q 204.27 410.41 208.56 409.06
  Q 214.28 407.27 214.56 401.53
  Q 214.67 399.31 213.76 397.60
  Q 212.83 395.84 211.06 394.44
  Q 182.63 371.84 154.23 349.68
  A 0.40 0.40 45.4 0 1 154.23 349.05
  Q 181.66 327.54 208.48 306.18
  Q 208.56 306.11 210.72 304.58
  Q 214.10 302.20 214.49 298.43
  Q 214.91 294.27 211.95 291.40
  Q 209.39 288.92 205.63 289.33
  Q 203.17 289.59 200.07 292.00
  Q 169.23 315.91 138.69 340.19
  Q 138.62 340.24 136.12 342.08
  Q 133.99 343.64 133.31 345.06
  Q 130.16 351.72 135.94 356.31"
/>
<path stroke="#183136" vector-effect="non-scaling-stroke" d="
  M 345.54 349.81
  Q 316.87 372.09 288.35 394.86
  Q 285.75 396.93 285.27 399.94
  Q 284.84 402.61 286.40 405.32
  Q 289.10 409.99 294.37 409.21
  Q 297.03 408.81 300.53 406.09
  Q 331.59 381.94 362.40 357.48
  Q 365.64 354.90 366.63 353.08
  Q 368.33 349.93 367.12 346.62
  Q 366.22 344.15 362.43 341.16
  Q 331.51 316.71 300.47 292.40
  Q 297.60 290.15 296.16 289.61
  Q 293.43 288.58 290.81 289.56
  Q 284.89 291.79 285.24 297.88
  Q 285.37 300.23 286.78 302.19
  Q 288.16 304.11 290.11 305.51
  Q 292.25 307.04 292.32 307.10
  Q 318.55 327.82 345.54 349.01
  A 0.51 0.51 44.9 0 1 345.54 349.81"
/>
<path stroke="#475a62" vector-effect="non-scaling-stroke" d="
  M 284.6547 267.4978
  A 3.31 3.31 0.0 0 0 282.7657 263.2148
  L 282.7098 263.1931
  A 3.31 3.31 0.0 0 0 278.4268 265.0821
  L 213.9853 431.2222
  A 3.31 3.31 0.0 0 0 215.8743 435.5052
  L 215.9302 435.5269
  A 3.31 3.31 0.0 0 0 220.2132 433.6379
  L 284.6547 267.4978"
/>
<path stroke="#475a62" vector-effect="non-scaling-stroke" d="
  M 146.35 349.14
  Q 147.93 347.59 150.69 345.44
  Q 159.51 338.55 208.03 299.99
  Q 210.81 297.79 208.56 294.94
  Q 206.90 292.82 204.75 294.50
  Q 172.47 319.73 140.35 345.16
  Q 140.29 345.21 138.96 346.11
  Q 137.46 347.12 137.20 348.70
  Q 136.92 350.36 138.46 351.82
  Q 139.63 352.93 141.69 354.56
  Q 173.04 379.35 204.56 403.94
  Q 207.40 406.15 208.94 403.19
  Q 210.13 400.90 208.96 399.25
  Q 208.66 398.83 206.30 396.97
  Q 176.37 373.37 146.40 349.81
  A 0.45 0.45 41.0 0 1 146.35 349.14"
/>
<path stroke="#475a62" vector-effect="non-scaling-stroke" d="
  M 353.46 348.83
  A 0.61 0.60 -45.2 0 1 353.46 349.78
  L 291.46 398.52
  A 2.80 2.76 82.3 0 0 290.59 399.68
  Q 289.06 403.57 292.87 404.42
  A 2.94 2.93 32.0 0 0 295.32 403.86
  Q 328.06 378.30 359.80 353.22
  Q 359.88 353.15 360.85 352.45
  Q 363.45 350.57 362.41 348.26
  Q 361.88 347.11 359.54 345.26
  Q 328.02 320.23 296.22 295.56
  Q 294.58 294.28 293.35 294.21
  Q 291.20 294.08 290.39 296.33
  Q 289.57 298.65 291.50 300.16
  L 353.46 348.83"
/>
</g>
<circle fill="#041f23" cx="249.68" cy="136.01" r="84.80"/>
<path fill="#041f23" d="
  M 396.91 390.75
  Q 396.76 396.25 396.95 401.74
  Q 397.11 406.50 396.41 411.15
  Q 395.73 415.67 393.94 420.18
  Q 384.37 444.32 357.50 448.75
  Q 354.68 449.22 343.50 449.19
  Q 246.00 449.00 148.50 449.00
  Q 141.99 449.00 136.02 447.55
  Q 130.01 446.09 124.53 442.82
  Q 109.07 433.60 103.75 415.50
  Q 102.49 411.21 102.49 404.50
  Q 102.50 389.63 102.50 374.75
  Q 102.50 360.92 106.28 345.12
  Q 116.92 300.67 149.69 270.19
  Q 175.97 245.74 210.79 236.11
  Q 220.32 233.48 230.37 232.20
  Q 277.29 226.24 318.75 248.13
  Q 327.50 252.75 335.68 258.73
  Q 380.65 291.64 393.49 346.20
  Q 395.65 355.42 396.38 365.96
  Q 397.24 378.33 396.91 390.75
  Z
  M 289.2689 269.3089
  A 8.26 8.26 0.0 0 0 284.5549 258.6209
  L 284.4244 258.5703
  A 8.26 8.26 0.0 0 0 273.7364 263.2842
  L 209.3311 429.3311
  A 8.26 8.26 0.0 0 0 214.0451 440.0191
  L 214.1756 440.0697
  A 8.26 8.26 0.0 0 0 224.8636 435.3558
  L 289.2689 269.3089
  Z
  M 135.94 356.31
  Q 168.15 381.88 200.42 407.37
  Q 204.27 410.41 208.56 409.06
  Q 214.28 407.27 214.56 401.53
  Q 214.67 399.31 213.76 397.60
  Q 212.83 395.84 211.06 394.44
  Q 182.63 371.84 154.23 349.68
  A 0.40 0.40 45.4 0 1 154.23 349.05
  Q 181.66 327.54 208.48 306.18
  Q 208.56 306.11 210.72 304.58
  Q 214.10 302.20 214.49 298.43
  Q 214.91 294.27 211.95 291.40
  Q 209.39 288.92 205.63 289.33
  Q 203.17 289.59 200.07 292.00
  Q 169.23 315.91 138.69 340.19
  Q 138.62 340.24 136.12 342.08
  Q 133.99 343.64 133.31 345.06
  Q 130.16 351.72 135.94 356.31
  Z
  M 345.54 349.81
  Q 316.87 372.09 288.35 394.86
  Q 285.75 396.93 285.27 399.94
  Q 284.84 402.61 286.40 405.32
  Q 289.10 409.99 294.37 409.21
  Q 297.03 408.81 300.53 406.09
  Q 331.59 381.94 362.40 357.48
  Q 365.64 354.90 366.63 353.08
  Q 368.33 349.93 367.12 346.62
  Q 366.22 344.15 362.43 341.16
  Q 331.51 316.71 300.47 292.40
  Q 297.60 290.15 296.16 289.61
  Q 293.43 288.58 290.81 289.56
  Q 284.89 291.79 285.24 297.88
  Q 285.37 300.23 286.78 302.19
  Q 288.16 304.11 290.11 305.51
  Q 292.25 307.04 292.32 307.10
  Q 318.55 327.82 345.54 349.01
  A 0.51 0.51 44.9 0 1 345.54 349.81
  Z"
/>
<path fill="#2c4249" d="
  M 224.8636 435.3558
  A 8.26 8.26 0.0 0 1 214.1756 440.0697
  L 214.0451 440.0191
  A 8.26 8.26 0.0 0 1 209.3311 429.3311
  L 273.7364 263.2842
  A 8.26 8.26 0.0 0 1 284.4244 258.5703
  L 284.5549 258.6209
  A 8.26 8.26 0.0 0 1 289.2689 269.3089
  L 224.8636 435.3558
  Z
  M 284.6547 267.4978
  A 3.31 3.31 0.0 0 0 282.7657 263.2148
  L 282.7098 263.1931
  A 3.31 3.31 0.0 0 0 278.4268 265.0821
  L 213.9853 431.2222
  A 3.31 3.31 0.0 0 0 215.8743 435.5052
  L 215.9302 435.5269
  A 3.31 3.31 0.0 0 0 220.2132 433.6379
  L 284.6547 267.4978
  Z"
/>
<rect fill="#62717b" x="-3.34" y="-92.41" transform="translate(249.32,349.36) rotate(21.2)" width="6.68" height="184.82" rx="3.31"/>
<path fill="#2c4249" d="
  M 135.94 356.31
  Q 130.16 351.72 133.31 345.06
  Q 133.99 343.64 136.12 342.08
  Q 138.62 340.24 138.69 340.19
  Q 169.23 315.91 200.07 292.00
  Q 203.17 289.59 205.63 289.33
  Q 209.39 288.92 211.95 291.40
  Q 214.91 294.27 214.49 298.43
  Q 214.10 302.20 210.72 304.58
  Q 208.56 306.11 208.48 306.18
  Q 181.66 327.54 154.23 349.05
  A 0.40 0.40 45.4 0 0 154.23 349.68
  Q 182.63 371.84 211.06 394.44
  Q 212.83 395.84 213.76 397.60
  Q 214.67 399.31 214.56 401.53
  Q 214.28 407.27 208.56 409.06
  Q 204.27 410.41 200.42 407.37
  Q 168.15 381.88 135.94 356.31
  Z
  M 146.35 349.14
  Q 147.93 347.59 150.69 345.44
  Q 159.51 338.55 208.03 299.99
  Q 210.81 297.79 208.56 294.94
  Q 206.90 292.82 204.75 294.50
  Q 172.47 319.73 140.35 345.16
  Q 140.29 345.21 138.96 346.11
  Q 137.46 347.12 137.20 348.70
  Q 136.92 350.36 138.46 351.82
  Q 139.63 352.93 141.69 354.56
  Q 173.04 379.35 204.56 403.94
  Q 207.40 406.15 208.94 403.19
  Q 210.13 400.90 208.96 399.25
  Q 208.66 398.83 206.30 396.97
  Q 176.37 373.37 146.40 349.81
  A 0.45 0.45 41.0 0 1 146.35 349.14
  Z"
/>
<path fill="#2c4249" d="
  M 345.54 349.81
  A 0.51 0.51 44.9 0 0 345.54 349.01
  Q 318.55 327.82 292.32 307.10
  Q 292.25 307.04 290.11 305.51
  Q 288.16 304.11 286.78 302.19
  Q 285.37 300.23 285.24 297.88
  Q 284.89 291.79 290.81 289.56
  Q 293.43 288.58 296.16 289.61
  Q 297.60 290.15 300.47 292.40
  Q 331.51 316.71 362.43 341.16
  Q 366.22 344.15 367.12 346.62
  Q 368.33 349.93 366.63 353.08
  Q 365.64 354.90 362.40 357.48
  Q 331.59 381.94 300.53 406.09
  Q 297.03 408.81 294.37 409.21
  Q 289.10 409.99 286.40 405.32
  Q 284.84 402.61 285.27 399.94
  Q 285.75 396.93 288.35 394.86
  Q 316.87 372.09 345.54 349.81
  Z
  M 353.46 348.83
  A 0.61 0.60 -45.2 0 1 353.46 349.78
  L 291.46 398.52
  A 2.80 2.76 82.3 0 0 290.59 399.68
  Q 289.06 403.57 292.87 404.42
  A 2.94 2.93 32.0 0 0 295.32 403.86
  Q 328.06 378.30 359.80 353.22
  Q 359.88 353.15 360.85 352.45
  Q 363.45 350.57 362.41 348.26
  Q 361.88 347.11 359.54 345.26
  Q 328.02 320.23 296.22 295.56
  Q 294.58 294.28 293.35 294.21
  Q 291.20 294.08 290.39 296.33
  Q 289.57 298.65 291.50 300.16
  L 353.46 348.83
  Z"
/>
<path fill="#62717b" d="
  M 146.40 349.81
  Q 176.37 373.37 206.30 396.97
  Q 208.66 398.83 208.96 399.25
  Q 210.13 400.90 208.94 403.19
  Q 207.40 406.15 204.56 403.94
  Q 173.04 379.35 141.69 354.56
  Q 139.63 352.93 138.46 351.82
  Q 136.92 350.36 137.20 348.70
  Q 137.46 347.12 138.96 346.11
  Q 140.29 345.21 140.35 345.16
  Q 172.47 319.73 204.75 294.50
  Q 206.90 292.82 208.56 294.94
  Q 210.81 297.79 208.03 299.99
  Q 159.51 338.55 150.69 345.44
  Q 147.93 347.59 146.35 349.14
  A 0.45 0.45 41.0 0 0 146.40 349.81
  Z"
/>
<path fill="#62717b" d="
  M 353.46 348.83
  L 291.50 300.16
  Q 289.57 298.65 290.39 296.33
  Q 291.20 294.08 293.35 294.21
  Q 294.58 294.28 296.22 295.56
  Q 328.02 320.23 359.54 345.26
  Q 361.88 347.11 362.41 348.26
  Q 363.45 350.57 360.85 352.45
  Q 359.88 353.15 359.80 353.22
  Q 328.06 378.30 295.32 403.86
  A 2.94 2.93 32.0 0 1 292.87 404.42
  Q 289.06 403.57 290.59 399.68
  A 2.80 2.76 82.3 0 1 291.46 398.52
  L 353.46 349.78
  A 0.61 0.60 -45.2 0 0 353.46 348.83
  Z"
/>
</svg>
